<?xml version="1.0" standalone="no"?>
<!DOCTYPE svg PUBLIC "-//W3C//DTD SVG 20010904//EN"
 "http://www.w3.org/TR/2001/REC-SVG-20010904/DTD/svg10.dtd">
<svg version="1.0" xmlns="http://www.w3.org/2000/svg"
 width="256.000000pt" height="256.000000pt" viewBox="0 0 256.000000 256.000000"
 preserveAspectRatio="xMidYMid meet">

<g transform="translate(0.000000,256.000000) scale(0.100000,-0.100000)"
fill="#000000" stroke="none">
<path d="M1136 2549 c-292 -33 -537 -151 -749 -358 -189 -185 -303 -392 -358
-654 -31 -144 -31 -370 0 -514 37 -175 96 -316 194 -463 71 -106 262 -292 370
-359 459 -283 1028 -261 1454 58 531 397 666 1133 312 1709 -74 120 -271 317
-391 391 -255 156 -548 223 -832 190z m-326 -1154 l0 -605 350 0 350 0 0 -110
0 -110 -470 0 -470 0 0 715 0 715 120 0 120 0 0 -605z m1190 -110 l0 -715
-120 0 -120 0 0 605 0 605 -350 0 -350 0 0 110 0 110 470 0 470 0 0 -715z
m-460 0 l0 -255 -255 0 -255 0 0 255 0 255 255 0 255 0 0 -255z"/>
</g>
</svg>
