<?xml version="1.0" standalone="no"?>
<!DOCTYPE svg PUBLIC "-//W3C//DTD SVG 20010904//EN"
 "http://www.w3.org/TR/2001/REC-SVG-20010904/DTD/svg10.dtd">
<svg version="1.0" xmlns="http://www.w3.org/2000/svg"
 width="256.000000pt" height="256.000000pt" viewBox="0 0 256.000000 256.000000"
 preserveAspectRatio="xMidYMid meet">

<g transform="translate(0.000000,256.000000) scale(0.100000,-0.100000)"
fill="#000000" stroke="none">
<path d="M235 2013 c-46 -63 -126 -220 -159 -311 -89 -251 -93 -551 -9 -816
50 -160 156 -341 276 -471 l55 -60 24 23 c16 14 37 22 64 23 21 0 33 3 26 6
-10 4 -8 11 9 29 21 23 21 24 3 25 -10 1 -26 0 -34 -1 -10 -1 -7 6 9 24 30 32
51 35 25 4 -10 -13 3 -3 29 22 41 39 45 46 30 53 -17 7 -18 37 -16 537 2 358
-1 530 -8 530 -6 0 -7 5 -4 10 3 6 1 10 -6 10 -8 0 -9 3 0 14 9 11 6 12 -15 8
-21 -4 -25 -2 -18 9 12 20 14 39 3 39 -6 0 -7 5 -4 10 4 6 1 9 -7 8 -7 -2 -12
3 -11 10 2 6 -4 12 -13 12 -15 0 -15 2 0 25 16 24 15 25 -3 25 -28 0 -52 11
-45 21 3 5 0 9 -6 9 -8 0 -7 6 1 21 11 21 10 22 -21 15 -28 -5 -31 -4 -20 9
10 12 10 15 0 15 -9 0 -7 7 5 20 18 20 17 20 -13 20 -25 0 -30 3 -27 20 2 11
-1 20 -6 20 -6 0 -8 4 -4 9 3 5 1 12 -4 15 -5 4 -12 2 -16 -4 -3 -5 -11 -10
-16 -10 -6 0 -7 6 -2 13 14 23 11 37 -8 37 -11 0 -17 5 -14 10 3 6 1 10 -4 10
-6 0 -27 -21 -46 -47z"/>
<path d="M415 340 c3 -5 12 -10 20 -10 8 0 17 5 20 10 4 6 -5 10 -20 10 -15 0
-24 -4 -20 -10z"/>
</g>
</svg>
