<?xml version="1.0" standalone="no"?>
<!DOCTYPE svg PUBLIC "-//W3C//DTD SVG 20010904//EN"
 "http://www.w3.org/TR/2001/REC-SVG-20010904/DTD/svg10.dtd">
<svg version="1.0" xmlns="http://www.w3.org/2000/svg"
 width="200.000000pt" height="200.000000pt" viewBox="0 0 200.000000 200.000000"
 preserveAspectRatio="xMidYMid meet">
<metadata>
Created by potrace 1.16, written by Peter Selinger 2001-2019
</metadata>
<g transform="translate(0.000000,200.000000) scale(0.100000,-0.100000)"
fill="#000000" stroke="none">
<path d="M50 1005 l0 -945 620 0 620 0 0 145 0 145 -465 0 -465 0 0 800 0 800
-155 0 -155 0 0 -945z"/>
<path d="M700 1805 l0 -145 465 0 465 0 0 -800 0 -800 155 0 155 0 0 945 0
945 -620 0 -620 0 0 -145z"/>
<path d="M660 1005 l0 -335 335 0 335 0 0 335 0 335 -335 0 -335 0 0 -335z"/>
</g>
</svg>
