<?xml version="1.0" standalone="no"?>
<!DOCTYPE svg PUBLIC "-//W3C//DTD SVG 20010904//EN"
 "http://www.w3.org/TR/2001/REC-SVG-20010904/DTD/svg10.dtd">
<svg version="1.0" xmlns="http://www.w3.org/2000/svg"
 width="912.000000pt" height="200.000000pt" viewBox="0 0 912.000000 200.000000"
 preserveAspectRatio="xMidYMid meet">
<metadata>
Created by potrace 1.16, written by Peter Selinger 2001-2019
</metadata>
<g transform="translate(0.000000,200.000000) scale(0.100000,-0.100000)"
fill="#000000" stroke="none">
<path d="M50 1005 l0 -945 620 0 620 0 0 145 0 145 -465 0 -465 0 0 800 0 800
-155 0 -155 0 0 -945z"/>
<path d="M700 1805 l0 -145 465 0 465 0 0 -800 0 -800 155 0 155 0 0 945 0
945 -620 0 -620 0 0 -145z"/>
<path d="M2925 1720 c-184 -23 -314 -111 -372 -252 -22 -54 -26 -78 -26 -168
-1 -94 2 -112 27 -165 33 -73 85 -128 151 -162 64 -33 78 -37 279 -79 171 -35
189 -41 238 -77 43 -32 61 -95 45 -159 -16 -65 -34 -85 -104 -119 -61 -29 -74
-31 -177 -32 -155 0 -274 35 -375 111 -27 22 -34 23 -41 11 -5 -7 -33 -50 -63
-94 l-53 -79 75 -49 c144 -94 305 -134 493 -123 239 15 388 99 454 256 23 56
27 79 27 165 0 118 -23 186 -89 258 -59 65 -143 101 -344 148 -96 22 -193 48
-216 58 -75 34 -113 111 -93 187 27 94 113 145 255 147 104 1 172 -16 271 -69
75 -40 83 -42 92 -26 5 9 30 52 55 94 l45 77 -67 41 c-86 51 -193 87 -296 100
-88 11 -102 11 -191 0z"/>
<path d="M3630 1688 c5 -18 79 -330 165 -693 86 -363 158 -668 161 -677 5 -16
19 -18 119 -18 l114 0 11 38 c6 20 66 242 134 492 119 437 124 453 134 415 37
-139 242 -933 242 -939 0 -4 53 -5 117 -4 l117 3 168 705 c92 388 168 706 168
708 0 1 -54 2 -119 2 -105 0 -120 -2 -125 -17 -3 -10 -51 -234 -106 -498 -55
-264 -103 -487 -106 -495 -3 -8 -57 172 -120 400 -62 228 -125 459 -140 513
l-26 97 -87 0 -86 0 -140 -514 c-77 -283 -143 -507 -146 -498 -3 9 -53 241
-110 514 l-104 498 -122 0 -121 0 8 -32z"/>
<path d="M5849 1693 c-49 -128 -519 -1384 -519 -1388 0 -3 56 -5 124 -5 l123
0 45 128 45 127 275 3 275 2 45 -127 44 -128 127 -3 127 -3 -19 48 c-10 26
-130 346 -266 711 l-249 662 -83 0 c-82 0 -84 -1 -94 -27z m98 -901 c-105 -1
-192 -1 -194 1 -2 2 40 127 92 278 52 150 95 276 95 279 1 3 45 -121 98 -275
l98 -280 -189 -3z"/>
<path d="M7139 1693 c-49 -128 -519 -1384 -519 -1388 0 -3 56 -5 124 -5 l123
0 45 128 45 127 275 3 275 2 45 -127 44 -128 127 -3 127 -3 -19 48 c-10 26
-130 346 -266 711 l-249 662 -83 0 c-82 0 -84 -1 -94 -27z m98 -901 c-105 -1
-192 -1 -194 1 -2 2 40 127 92 278 52 150 95 276 95 279 1 3 45 -121 98 -275
l98 -280 -189 -3z"/>
<path d="M8040 1010 l0 -710 115 0 115 0 0 274 0 274 228 4 c208 3 231 6 281
26 116 49 190 127 232 247 31 87 29 227 -3 315 -58 158 -174 246 -359 270 -41
5 -194 10 -341 10 l-268 0 0 -710z m649 462 c141 -70 141 -314 0 -384 -28 -14
-66 -17 -226 -18 l-193 0 0 210 0 210 193 0 c160 -1 198 -4 226 -18z"/>
<path d="M660 1005 l0 -335 335 0 335 0 0 335 0 335 -335 0 -335 0 0 -335z"/>
</g>
</svg>
