<?xml version="1.0" standalone="no"?>
<!DOCTYPE svg PUBLIC "-//W3C//DTD SVG 20010904//EN"
 "http://www.w3.org/TR/2001/REC-SVG-20010904/DTD/svg10.dtd">
<svg version="1.0" xmlns="http://www.w3.org/2000/svg"
 width="256.000000pt" height="256.000000pt" viewBox="0 0 256.000000 256.000000"
 preserveAspectRatio="xMidYMid meet">
<metadata>
Created by potrace 1.16, written by Peter Selinger 2001-2019
</metadata>
<g transform="translate(0.000000,256.000000) scale(0.100000,-0.100000)"
fill="#000000" stroke="none">
<path d="M560 1290 l0 -710 465 0 465 0 0 110 0 110 -350 0 -350 0 0 600 0
600 -115 0 -115 0 0 -710z"/>
<path d="M1070 1880 l0 -110 350 0 350 0 0 -600 0 -600 115 0 115 0 0 710 0
710 -465 0 -465 0 0 -110z"/>
<path d="M1070 1280 l0 -210 210 0 210 0 0 210 0 210 -210 0 -210 0 0 -210z"/>
</g>
</svg>
